<?xml version="1.0" standalone="no"?>
<!DOCTYPE svg PUBLIC "-//W3C//DTD SVG 20010904//EN"
 "http://www.w3.org/TR/2001/REC-SVG-20010904/DTD/svg10.dtd">
<svg version="1.0" xmlns="http://www.w3.org/2000/svg"
 width="2048.000000pt" height="2048.000000pt" viewBox="0 0 2048.000000 2048.000000"
 preserveAspectRatio="xMidYMid meet">
<metadata>
Created by potrace 1.14, written by Peter Selinger 2001-2017
</metadata>
<g transform="translate(0.000000,2048.000000) scale(0.100000,-0.100000)"
fill="#000000" stroke="none">
<path d="M2565 20099 c-576 -4 -828 -9 -873 -17 -162 -32 -296 -95 -415 -197
-89 -77 -202 -202 -252 -281 -39 -61 -105 -186 -105 -200 0 -5 -6 -21 -14 -35
-23 -45 -46 -168 -56 -309 -23 -296 -28 -2289 -24 -8250 3 -3429 6 -6255 6
-6280 1 -25 1 -286 0 -580 0 -294 3 -866 8 -1270 8 -692 9 -741 29 -830 12
-52 27 -111 35 -130 8 -19 17 -48 21 -63 10 -47 75 -178 118 -236 45 -62 166
-182 242 -241 87 -66 215 -126 321 -150 133 -30 233 -31 3139 -29 1623 1 5459
1 8525 0 4174 -2 5596 0 5658 9 160 22 256 53 402 128 129 68 263 181 351 297
84 112 161 306 188 475 12 72 16 17600 5 17661 -4 19 -10 39 -15 44 -4 6 -10
28 -14 50 -4 22 -18 64 -31 93 -13 29 -24 55 -24 58 0 3 -18 29 -39 58 -63 85
-181 174 -257 195 -126 34 -118 34 -8169 35 -4372 0 -8314 -2 -8760 -5z
m13835 -536 c288 -2 526 -6 528 -8 12 -12 -48 -95 -186 -257 -257 -303 -625
-748 -676 -818 -26 -36 -53 -69 -60 -75 -8 -7 -89 -7 -232 -2 -229 8 -1092 1
-1122 -10 -9 -3 6 13 35 36 29 23 96 92 149 152 53 61 128 145 167 188 40 42
130 141 200 218 133 145 554 558 591 581 12 7 34 10 51 6 17 -4 266 -8 555
-11z m-9485 -9 c264 -4 482 -8 484 -10 3 -3 -3 -12 -92 -125 -56 -71 -179
-215 -317 -370 -230 -260 -520 -612 -520 -634 0 -8 -24 -15 -67 -19 -72 -7
-1203 -7 -1203 0 0 15 195 247 335 399 56 61 142 155 193 210 50 55 194 205
320 334 l229 234 79 -6 c43 -4 295 -10 559 -13z m2303 -1 c352 -3 532 -8 532
-15 0 -24 -130 -188 -450 -570 -85 -102 -168 -202 -185 -222 -16 -21 -39 -48
-51 -60 -18 -20 -55 -69 -188 -249 l-21 -28 -659 -3 -660 -3 41 36 c22 20 69
70 103 111 35 41 138 156 229 256 91 99 206 225 255 280 143 160 427 454 438
454 5 0 17 7 25 16 10 10 23 13 37 8 12 -3 261 -9 554 -11z m2384 5 c307 1
500 -3 503 -9 7 -11 -27 -70 -59 -102 -21 -22 -115 -134 -315 -377 -57 -69
-131 -159 -166 -200 -205 -244 -276 -333 -322 -398 l-50 -73 -626 -3 c-587 -2
-625 -1 -616 15 5 10 15 23 21 31 7 7 35 42 63 78 47 61 171 209 185 220 3 3
46 50 95 105 49 55 121 134 160 175 38 41 117 127 175 190 217 237 301 323
344 348 13 8 37 10 66 6 25 -3 269 -6 542 -6z m-6584 -7 c9 -1 10 -6 2 -21
-14 -26 -166 -214 -319 -394 -134 -159 -440 -518 -469 -551 -10 -11 -31 -40
-47 -65 -16 -25 -39 -57 -51 -72 -12 -15 -24 -33 -26 -40 -4 -10 -47 -13 -184
-13 -98 -1 -246 -3 -329 -7 -97 -3 -118 -3 -60 2 50 4 -77 6 -283 4 l-374 -4
23 32 c62 88 221 282 294 358 45 47 108 116 141 155 64 76 304 347 314 355 3
3 53 57 110 120 56 63 111 119 121 124 11 5 19 12 19 15 0 5 1066 7 1118 2z
m8930 -1 l514 0 -27 -32 c-14 -18 -78 -96 -142 -173 -64 -77 -155 -187 -202
-245 -47 -57 -93 -111 -101 -120 -23 -24 -188 -225 -266 -325 -69 -89 -137
-185 -162 -230 -11 -21 -21 -24 -105 -29 -50 -3 -207 -7 -347 -9 -140 -2 -212
-1 -160 2 52 4 -80 5 -295 3 l-390 -5 35 39 c19 21 37 41 40 44 3 3 34 39 69
80 62 72 135 153 436 474 199 213 503 516 528 526 12 5 31 7 42 5 11 -3 251
-5 533 -5z m5270 -513 c2 -282 0 -539 -3 -572 l-6 -60 -984 -3 c-542 -1 -1014
-4 -1050 -6 -36 -2 -65 -1 -65 1 0 11 193 235 296 343 141 149 212 225 253
275 19 22 102 111 185 199 83 87 153 161 156 165 3 3 48 44 100 91 l95 85 510
-3 510 -3 3 -512z m-8505 -654 c-45 -2 -122 -2 -170 0 -48 1 -11 3 82 3 94 0
133 -2 88 -3z m-8282 -228 c142 -5 173 -10 162 -28 -4 -6 2 -8 17 -4 33 9 102
-31 188 -109 116 -105 115 -101 116 -414 1 -146 0 -3814 -1 -8153 l-3 -7887
-707 2 c-624 3 -707 5 -703 18 3 8 6 3744 8 8302 l2 8288 393 -5 c215 -3 453
-7 528 -10z m12749 -24 c310 -7 316 -8 370 -33 60 -28 102 -68 145 -137 l27
-44 -3 -4271 c-1 -2349 -1 -6029 0 -8178 l4 -3908 -916 0 -916 0 -1 588 c0
323 -2 848 -5 1167 -3 319 -7 1404 -10 2410 l-5 1830 42 56 c24 32 83 106 133
165 115 140 215 275 290 392 33 51 77 119 97 150 141 217 386 684 463 882 90
230 163 476 229 770 57 256 89 804 67 1169 -17 284 -48 486 -127 816 -14 61
-30 126 -34 145 -14 67 -62 206 -126 367 -35 90 -64 166 -64 169 0 3 -6 20
-14 37 -8 18 -29 66 -47 107 -64 148 -176 383 -209 440 -5 8 -37 65 -71 125
-34 61 -70 121 -79 135 -9 14 -39 59 -66 100 -82 126 -254 355 -426 567 -32
39 -58 75 -58 79 0 4 -10 18 -22 31 -17 19 -18 23 -6 23 41 0 41 2 35 1750 -3
921 -2 1713 2 1759 5 46 12 86 18 90 5 3 15 20 22 38 7 17 19 34 27 37 8 3 14
11 14 18 0 18 127 142 163 160 30 15 409 15 1057 -1z m-6490 -13 c41 -5 89
-16 105 -23 17 -7 41 -16 55 -19 38 -8 134 -104 161 -161 l24 -50 -2 -785 c0
-432 -1 -931 -2 -1110 l-1 -325 -178 -58 c-557 -181 -893 -353 -1472 -752
-113 -78 -211 -145 -219 -150 -11 -6 -13 118 -10 786 2 437 3 1152 1 1589 -1
447 2 809 7 826 17 61 109 184 163 218 16 10 44 22 61 27 45 11 1216 0 1307
-13z m10534 -30 c9 -65 6 -15433 -3 -16068 l-6 -455 -548 -3 -548 -2 2 8062
c1 4881 5 8097 11 8148 14 134 24 157 103 236 121 121 107 118 540 124 204 3
386 7 406 8 l36 2 7 -52z m-5367 -580 c-3 -7 -5 -2 -5 12 0 14 2 19 5 13 2 -7
2 -19 0 -25z m-13020 -180 c-2 -13 -4 -3 -4 22 0 25 2 35 4 23 2 -13 2 -33 0
-45z m9895 -4332 c224 -48 511 -158 688 -264 246 -148 479 -382 642 -648 239
-387 346 -763 336 -1174 -5 -199 -26 -330 -79 -510 -53 -178 -77 -237 -166
-410 -94 -185 -248 -392 -392 -528 -356 -337 -932 -563 -1430 -562 -186 1
-487 60 -684 134 -140 53 -355 167 -485 258 -324 225 -628 638 -760 1033 -77
229 -102 390 -102 665 0 238 30 426 100 625 42 118 176 392 236 480 160 237
450 516 677 651 218 130 561 245 810 273 45 5 174 8 287 6 172 -3 224 -8 322
-29z m-3341 -5983 c13 -17 13 -17 -6 -3 -11 8 -22 16 -24 17 -2 2 0 3 6 3 6 0
17 -8 24 -17z m44 -33 c10 -11 16 -20 13 -20 -3 0 -13 9 -23 20 -10 11 -16 20
-13 20 3 0 13 -9 23 -20z m46 -37 c13 -16 12 -17 -3 -4 -10 7 -18 15 -18 17 0
8 8 3 21 -13z m64 -43 c3 -6 -1 -7 -9 -4 -18 7 -21 14 -7 14 6 0 13 -4 16 -10z
m-320 -85 c28 -19 73 -51 100 -70 51 -37 241 -163 330 -220 28 -17 85 -54 128
-81 43 -27 105 -69 139 -93 l60 -45 -5 -110 c-5 -104 -54 -602 -77 -781 -6
-44 -26 -217 -45 -385 -20 -168 -44 -377 -55 -465 -11 -88 -29 -250 -40 -360
-11 -110 -29 -285 -40 -390 -40 -370 -70 -672 -86 -840 -8 -93 -32 -330 -54
-525 -21 -195 -46 -440 -55 -543 -9 -104 -20 -211 -25 -239 -7 -34 -7 -55 0
-62 6 -6 436 -9 1240 -7 l1230 3 0 -21 c0 -15 -10 -23 -37 -31 -65 -18 -998
-23 -1683 -9 -349 7 -741 14 -870 16 l-235 4 2 2622 c1 1442 3 2632 3 2645 0
31 17 28 75 -13z m445 -2 c0 -7 -39 17 -46 28 -3 6 5 3 20 -6 14 -10 26 -19
26 -22z m80 -49 c0 -2 -9 0 -20 6 -11 6 -20 13 -20 16 0 2 9 0 20 -6 11 -6 20
-13 20 -16z m60 -41 c0 -7 -39 17 -46 28 -3 6 5 3 20 -6 14 -10 26 -19 26 -22z
m56 -34 c4 -8 1 -8 -14 0 -12 6 -24 16 -28 22 -4 8 -1 8 14 0 12 -6 24 -16 28
-22z m69 -44 l20 -16 -20 10 c-11 5 -29 17 -40 26 l-20 16 20 -10 c11 -5 29
-17 40 -26z m120 -73 c-3 -3 -11 0 -18 7 -9 10 -8 11 6 5 10 -3 15 -9 12 -12z"/>
<path d="M14869 18573 c-13 -16 -12 -17 4 -4 9 7 17 15 17 17 0 8 -8 3 -21
-13z"/>
<path d="M5948 18403 c18 -2 45 -2 60 0 15 2 0 4 -33 4 -33 0 -45 -2 -27 -4z"/>
<path d="M2940 18445 c-7 -9 -11 -17 -9 -20 3 -2 10 5 17 15 14 24 10 26 -8 5z"/>
<path d="M13133 18403 c26 -2 67 -2 90 0 23 2 2 3 -48 3 -49 0 -68 -1 -42 -3z"/>
<path d="M17609 18913 c-13 -16 -12 -17 4 -4 16 13 21 21 13 21 -2 0 -10 -8
-17 -17z"/>
<path d="M10250 11621 c-138 -31 -251 -92 -337 -182 -38 -41 -153 -208 -153
-223 0 -6 -6 -23 -14 -38 -51 -98 -46 -323 12 -468 77 -196 229 -332 454 -406
72 -24 89 -26 186 -21 86 4 120 10 171 31 271 114 435 357 433 641 -1 109 -9
175 -22 175 -4 0 -11 17 -15 37 -9 48 -77 175 -128 238 -96 118 -182 173 -327
210 -98 24 -169 26 -260 6z"/>
<path d="M8548 993 c7 -3 16 -2 19 1 4 3 -2 6 -13 5 -11 0 -14 -3 -6 -6z"/>
<path d="M8608 993 c7 -3 16 -2 19 1 4 3 -2 6 -13 5 -11 0 -14 -3 -6 -6z"/>
<path d="M8668 993 c7 -3 16 -2 19 1 4 3 -2 6 -13 5 -11 0 -14 -3 -6 -6z"/>
<path d="M8718 993 c6 -2 18 -2 25 0 6 3 1 5 -13 5 -14 0 -19 -2 -12 -5z"/>
<path d="M9248 993 c7 -3 16 -2 19 1 4 3 -2 6 -13 5 -11 0 -14 -3 -6 -6z"/>
</g>
</svg>
